<?xml version="1.0" encoding="UTF-8"?> <svg xmlns="http://www.w3.org/2000/svg" xmlns:xlink="http://www.w3.org/1999/xlink" viewBox="0 0 2517 1039"> <defs> <style>.cls-1{fill:none;}.cls-2{fill:#8ab53f;}.cls-3{fill:#079d4a;}.cls-4{stroke:#fff;stroke-miterlimit:10;fill:url(#Новый_образец_узора_2);}</style> <pattern id="Новый_образец_узора_2" data-name="Новый образец узора 2" width="500" height="500" patternUnits="userSpaceOnUse" viewBox="0 0 500 500"> <rect class="cls-1" width="500" height="500"></rect> <path class="cls-1" d="M362.89,296.46c-27.77-9-54.85-3.2-74.37,16.09-22.16,21.91-30,56.51-19.92,88.22,56.53,11.19,66.51-25.49,76.17-61C349.37,322.9,353.72,306.93,362.89,296.46Z"></path> <path class="cls-1" d="M190.84,340.66c13.68,4.3,27.82,8.74,43.25,22C246.17,307.06,234,266.78,199,246.2c-11.79-6.91-25.1-8.6-38-10.24-15.82-2-30.79-3.91-42.87-14.76-.5,16.65-1.19,54.08,26,89.74C159.16,330.7,174.55,335.54,190.84,340.66Z"></path> <path class="cls-1" d="M182.88,73.18c-27.77-9-54.85-3.19-74.37,16.1-22.16,21.9-30,56.51-19.92,88.22,56.52,11.19,66.51-25.5,76.17-61C169.36,99.63,173.7,83.66,182.88,73.18Z"></path> <path class="cls-1" d="M435.53,356.23c13.68,4.3,27.83,8.75,43.26,22.06,12.07-55.65-.06-95.93-35.09-116.51-11.8-6.91-25.1-8.6-38-10.24-15.83-2-30.79-3.92-42.88-14.77-.5,16.66-1.19,54.09,26,89.75C403.86,346.28,419.24,351.11,435.53,356.23Z"></path> <path class="cls-1" d="M174.24,459.84c26.7,15.41,63.3,19,111.85,10.83-11.77-9.45-18.84-21.5-26.31-34.23-8.15-13.89-16.57-28.25-31.94-40.92-20.11-16.59-38.53-13.62-58-10.47-14.9,2.41-30.31,4.9-48.36-.19C133.09,421.94,149.87,445.78,174.24,459.84Z"></path> <path class="cls-1" d="M107.59,312c-27.78-9-54.85-3.19-74.37,16.1C11.06,350,3.25,384.64,13.3,416.35c56.53,11.19,66.51-25.5,76.17-61C94.07,338.48,98.41,322.51,107.59,312Z"></path> <path class="cls-1" d="M300.53,156.67c-20.11-16.59-38.52-13.62-58-10.47-14.9,2.41-30.3,4.89-48.35-.19,11.62,37.08,28.41,60.92,52.77,75,26.7,15.41,63.3,19,111.86,10.83-11.78-9.45-18.85-21.5-26.32-34.23C324.32,183.7,315.9,169.34,300.53,156.67Z"></path> <path class="cls-1" d="M417.46,101c4.6-16.9,9-32.87,18.12-43.35-27.77-9-54.84-3.19-74.36,16.1-22.17,21.91-30,56.51-19.92,88.22C397.82,173.11,407.81,136.43,417.46,101Z"></path> <path class="cls-2" d="M107.36,248.2l1.12-.19-.9-.7c-12.16-9.43-19.35-21.68-27-34.65-8.19-14-16.66-28.4-32.16-41.18C31.61,157.58,16,157.17,0,159.23v1c15.82-2.05,31.25-1.67,47.82,12,15.37,12.67,23.8,27,31.94,40.91C87.23,225.9,94.3,238,106.08,247.4,60.93,255,26.13,252.41,0,239.63v1.11c16.43,7.94,36.21,11.89,59.76,11.89A285.36,285.36,0,0,0,107.36,248.2Z"></path> <path class="cls-3" d="M107.5,180.27a98.44,98.44,0,0,1-19.27-2.08l-.22,0-.07-.21c-10.23-32-2.37-67,20-89.19,19.86-19.63,47.44-25.49,75.67-16.1l.55.18-.39.42c-9.31,10.34-13.69,26.43-18.33,43.47-4.8,17.64-9.77,35.88-20.7,48.26C135.75,175.21,123.46,180.27,107.5,180.27Zm57.26-63.74c4.6-16.9,8.94-32.87,18.12-43.35-27.77-9-54.85-3.19-74.37,16.1-22.16,21.9-30,56.51-19.92,88.22C145.11,188.69,155.1,152,164.76,116.53Z"></path> <path class="cls-3" d="M0,15.74a66.27,66.27,0,0,1,19,7.19C54,43.51,66.15,83.79,54.08,139.44c-15.43-13.31-29.57-17.76-43.26-22.06C7.17,116.23,3.57,115.1,0,113.81v.8c3.49,1.25,7,2.36,10.6,3.49,13.75,4.32,28,8.79,43.46,22.32l.48.41.14-.62C70.31,69.07,44.1,36.81,19.37,22.28A67.3,67.3,0,0,0,0,15Z"></path> <path class="cls-2" d="M120.23,384.27l-.27-.89.89.26c18.22,5.36,33.77,2.85,48.81.42,19.72-3.18,38.35-6.19,58.81,10.69,15.51,12.78,24,27.22,32.17,41.18,7.61,13,14.79,25.22,26.95,34.65l.9.7-1.12.19a284.28,284.28,0,0,1-47.59,4.44c-26.63,0-48.45-5.05-66-15.2C149,446.4,132,422.11,120.23,384.27Zm1.23.59c11.63,37.08,28.41,60.92,52.78,75,26.7,15.41,63.3,19,111.85,10.83-11.77-9.45-18.84-21.5-26.31-34.23-8.15-13.89-16.57-28.25-31.94-40.92-20.11-16.59-38.53-13.62-58-10.47C154.92,387.46,139.51,390,121.46,384.86Z"></path> <path class="cls-3" d="M287.51,403.55a99.3,99.3,0,0,1-19.27-2.08l-.22-.05-.06-.21c-10.24-32-2.37-67,20-89.19,19.85-19.62,47.43-25.49,75.67-16.1l.54.18-.38.43c-9.32,10.33-13.7,26.43-18.34,43.47-4.8,17.63-9.76,35.87-20.69,48.25C315.76,398.48,303.47,403.55,287.51,403.55Zm57.26-63.75c4.6-16.9,9-32.87,18.12-43.34-27.77-9-54.85-3.2-74.37,16.09-22.16,21.91-30,56.51-19.92,88.22C325.13,412,335.11,375.28,344.77,339.8Z"></path> <path class="cls-3" d="M143.53,311.4c-27.75-36.45-26.6-74.68-26.1-91l0-.82.61.52c12,11.18,27.1,13.1,43.07,15.13,12.94,1.65,26.32,3.35,38.25,10.34,24.74,14.53,50.94,46.78,35.31,117.93l-.14.62-.47-.42c-15.5-13.53-29.72-18-43.47-22.32C174.2,336.21,158.71,331.34,143.53,311.4Zm.6-.46c15,19.76,30.42,24.6,46.71,29.72,13.68,4.3,27.82,8.74,43.25,22C246.17,307.06,234,266.78,199,246.2c-11.79-6.91-25.1-8.6-38-10.24-15.82-2-30.79-3.91-42.87-14.76C117.66,237.85,117,275.28,144.13,310.94Z"></path> <path class="cls-2" d="M333.33,197.08c7.61,13,14.8,25.22,27,34.65l.9.7-1.12.19a284.48,284.48,0,0,1-47.6,4.44c-26.63,0-48.45-5.05-66-15.2-24.79-14.31-41.79-38.6-53.5-76.44l-.28-.89.89.26c18.22,5.36,33.77,2.85,48.81.42,19.73-3.18,38.36-6.19,58.82,10.69C316.67,168.68,325.14,183.12,333.33,197.08Zm-.86.51c-8.15-13.89-16.57-28.25-31.94-40.92-20.11-16.59-38.52-13.62-58-10.47-14.9,2.41-30.3,4.89-48.35-.19,11.62,37.08,28.41,60.92,52.77,75,26.7,15.41,63.3,19,111.86,10.83C347,222.37,339.94,210.32,332.47,197.59Z"></path> <path class="cls-3" d="M340.72,162.57l-.07-.21c-10.24-32-2.37-67,20-89.19,19.85-19.62,47.43-25.49,75.67-16.1l.54.18-.38.43c-9.31,10.33-13.69,26.43-18.33,43.47-4.8,17.63-9.77,35.87-20.7,48.25-9,10.23-21.32,15.3-37.29,15.3a99.38,99.38,0,0,1-19.27-2.08Zm.58-.65c56.52,11.19,66.51-25.49,76.16-61,4.6-16.9,9-32.87,18.12-43.35-27.77-9-54.84-3.19-74.36,16.1C339.05,95.61,331.25,130.21,341.3,161.92Z"></path> <path class="cls-3" d="M216.23,72.55c15.17,19.94,30.67,24.81,47.08,30,13.74,4.32,28,8.79,43.46,22.32l.48.41.13-.61C323,53.49,296.81,21.24,272.07,6.71A64.27,64.27,0,0,0,255.21,0H252A67.1,67.1,0,0,1,271.7,7.35c35,20.58,47.16,60.86,35.09,116.51-15.44-13.31-29.58-17.76-43.26-22.06-16.29-5.12-31.68-10-46.71-29.71C197,46.08,192,19.14,191,0h-.75C191.27,19.24,196.28,46.36,216.23,72.55Z"></path> <path class="cls-3" d="M190.75,481.24l-.6-.52,0,.82c-.14,4.6-.33,10.93.09,18.46H191c-.39-7.11-.25-13.15-.11-17.66,12.09,10.85,27.05,12.76,42.88,14.77,6,.77,12.19,1.56,18.23,2.89h3.25a175.34,175.34,0,0,0-21.39-3.63C217.85,494.34,202.77,492.42,190.75,481.24Z"></path> <path class="cls-2" d="M33.19,486.86l-.9-.7c-12.16-9.43-19.35-21.68-27-34.65-1.74-3-3.5-6-5.33-9v1.92c1.53,2.52,3,5,4.47,7.54C11.94,464.75,19,476.8,30.79,486.25Q14.52,489,0,489.94v1a316.37,316.37,0,0,0,32.07-3.89Z"></path> <path class="cls-3" d="M32.21,419.12A98.44,98.44,0,0,1,12.94,417l-.22,0-.07-.21c-10.23-32-2.37-67,20-89.19,19.86-19.63,47.44-25.49,75.67-16.1l.55.18-.39.43c-9.31,10.33-13.69,26.43-18.33,43.46-4.8,17.64-9.77,35.88-20.7,48.26C60.46,414.06,48.17,419.12,32.21,419.12Zm57.26-63.74c4.6-16.9,8.94-32.87,18.12-43.35-27.78-9-54.85-3.19-74.37,16.1C11.06,350,3.25,384.64,13.3,416.35,69.83,427.54,79.81,390.85,89.47,355.38Z"></path> <path class="cls-2" d="M494.22,236.57c-24.36-14.06-41.14-37.9-52.77-75,18.05,5.08,33.45,2.59,48.35.19,3.43-.55,6.82-1.1,10.2-1.54v-1c-3.43.45-6.87,1-10.35,1.56-15,2.43-30.59,4.94-48.81-.42l-.9-.26.28.89c11.71,37.84,28.72,62.13,53.5,76.43,2,1.18,4.13,2.27,6.28,3.31v-1.11Q497,238.19,494.22,236.57Z"></path> <path class="cls-3" d="M481,12.69c6.3.8,12.7,1.62,19,3.05V15c-6.26-1.41-12.62-2.23-18.89-3-14.3-1.82-27.89-3.58-39.2-11.95h-1.27C452.26,9,466.26,10.81,481,12.69Z"></path> <path class="cls-3" d="M437.33,0c-.45,17.63-.05,53.67,26.19,88.12,11.87,15.6,23.93,22,36.48,26.49v-.8c-12.35-4.47-24.22-10.81-35.88-26.14C438,53.41,437.63,17.54,438.08,0Z"></path> <path class="cls-2" d="M500,489.94c-33.63,2.25-60.33-2.56-81.07-14.52-24.36-14.06-41.14-37.9-52.77-75,18,5.08,33.45,2.6,48.35.19,19.5-3.15,37.91-6.12,58,10.47,12.6,10.39,20.53,21.91,27.47,33.37v-1.92c-6.78-11.07-14.62-22.16-26.83-32.22-20.46-16.88-39.09-13.87-58.81-10.69-15,2.43-30.59,4.94-48.81-.42l-.9-.26.28.89c11.71,37.84,28.72,62.13,53.5,76.43,17.59,10.16,39.41,15.2,66,15.2,5,0,10.19-.19,15.53-.54Z"></path> <path class="cls-3" d="M388.23,327c-27.76-36.44-26.6-74.68-26.1-91l0-.83.61.53c12,11.18,27.09,13.09,43.06,15.13,12.95,1.64,26.33,3.35,38.26,10.33,24.73,14.53,50.94,46.79,35.31,117.93l-.14.62-.48-.41c-15.5-13.53-29.71-18-43.46-22.32C418.9,351.79,403.4,346.92,388.23,327Zm.6-.45c15,19.76,30.41,24.59,46.7,29.71,13.68,4.3,27.83,8.75,43.26,22.06,12.07-55.65-.06-95.93-35.09-116.51-11.8-6.91-25.1-8.6-38-10.24-15.83-2-30.79-3.92-42.88-14.77C362.35,253.43,361.66,290.86,388.83,326.52Z"></path> </pattern> </defs> <g id="Слой_2" data-name="Слой 2"> <g id="Слой_1-2" data-name="Слой 1"> <rect class="cls-4" x="0.5" y="0.5" width="2516" height="1038"></rect> </g> </g> </svg> 