<?xml version="1.0" encoding="UTF-8"?> <svg xmlns="http://www.w3.org/2000/svg" viewBox="0 0 91.38 73.53"> <defs> <style>.cls-1{fill:none;stroke:#231f20;stroke-linecap:round;stroke-linejoin:round;stroke-width:3.38px;}</style> </defs> <g id="Слой_2" data-name="Слой 2"> <g id="Слой_1-2" data-name="Слой 1"> <path class="cls-1" d="M30.57,71.84H60.81V4.12a2.44,2.44,0,0,0-2.44-2.43H33a2.44,2.44,0,0,0-2.44,2.43Z"></path> <path class="cls-1" d="M30.57,71.84H12.7V28.58a2.44,2.44,0,0,1,2.43-2.44h13a2.44,2.44,0,0,1,2.43,2.44Z"></path> <polyline class="cls-1" points="30.57 17.47 18.8 17.47 18.8 26.14"></polyline> <path class="cls-1" d="M78.86,71.84h-18V40.11a2.43,2.43,0,0,1,2.43-2.44H76.43a2.43,2.43,0,0,1,2.43,2.44Z"></path> <line class="cls-1" x1="19.85" y1="37.86" x2="30.57" y2="37.86"></line> <line class="cls-1" x1="19.85" y1="50.16" x2="30.57" y2="50.16"></line> <line class="cls-1" x1="60.81" y1="50.16" x2="70.56" y2="50.16"></line> <line class="cls-1" x1="39.54" y1="25.57" x2="51.84" y2="25.57"></line> <line class="cls-1" x1="39.54" y1="37.86" x2="51.84" y2="37.86"></line> <line class="cls-1" x1="39.54" y1="50.16" x2="51.84" y2="50.16"></line> <line class="cls-1" x1="39.54" y1="13.27" x2="51.84" y2="13.27"></line> <line class="cls-1" x1="1.69" y1="71.84" x2="89.69" y2="71.84"></line> </g> </g> </svg> 