<?xml version="1.0" encoding="UTF-8"?> <svg xmlns="http://www.w3.org/2000/svg" viewBox="0 0 92.22 96.91"> <defs> <style>.cls-1{fill:none;stroke:#231f20;stroke-linecap:round;stroke-linejoin:round;stroke-width:3.33px;}</style> </defs> <g id="Слой_2" data-name="Слой 2"> <g id="Слой_1-2" data-name="Слой 1"> <path class="cls-1" d="M32.81,89.49V75.12a6.68,6.68,0,0,1,6.66-6.64H53a6.67,6.67,0,0,1,6.7,6.64V89.51a5.74,5.74,0,0,0,5.61,5.73h9A16.17,16.17,0,0,0,90.56,79.16h0V38.34a11.42,11.42,0,0,0-4.5-8.89L55.27,4.87a14.89,14.89,0,0,0-18.45,0L6.17,29.47a11.31,11.31,0,0,0-4.5,8.91V79.15A16.16,16.16,0,0,0,17.91,95.24h9a5.79,5.79,0,0,0,5.81-5.75"></path> </g> </g> </svg> 