<?xml version="1.0" encoding="UTF-8"?> <!-- Generator: Adobe Illustrator 25.4.1, SVG Export Plug-In . SVG Version: 6.00 Build 0) --> <svg xmlns="http://www.w3.org/2000/svg" xmlns:xlink="http://www.w3.org/1999/xlink" id="Слой_1" x="0px" y="0px" viewBox="0 0 1195.4 858.1" style="enable-background:new 0 0 1195.4 858.1;" xml:space="preserve"> <style type="text/css"> .st0{clip-path:url(#SVGID_00000130631369726810998070000015587957452584115881_);} .st1{fill:#FFFFFF;} </style> <g> <g id="Слой_2_00000114769349814538268460000009442446392919209916_"> <g id="Слой_1-2"> <g> <defs> <path id="SVGID_1_" d="M0,856.8h1195.4c-69.5-189.5-141.9-389.7-307.2-584.6C667.6,12.1,425.3,9.8,159.9,0H0V856.8z"></path> </defs> <clipPath id="SVGID_00000085936834334527164830000003385886746681479062_"> <use xlink:href="#SVGID_1_" style="overflow:visible;"></use> </clipPath> <g style="clip-path:url(#SVGID_00000085936834334527164830000003385886746681479062_);"> <g> <polygon class="st1" points="-314.4,196.7 -80.2,-37.4 -83.4,-40.5 -317.5,193.6 -318.3,192.8 -552.3,427 -553.1,426.2 -787.2,660.2 -788,659.4 -1022,893.5 -1022.8,892.7 -1256.8,1126.9 -1256.9,1126.8 -1257.6,1126.1 -1491.8,1360.1 -1492.5,1359.4 -1723.8,1590.7 -1724.5,1589.8 -1955.8,1821.1 -1956.6,1820.3 -2187.8,2051.5 -2188.6,2050.8 -2422.7,2284.9 -2405.6,2301.9 -2171.5,2067.8 -2172.4,2067 -1941.1,1835.8 -1941.8,1835 -1710.6,1603.7 -1711.4,1603 -1480.2,1371.7 -1480.9,1371 -1246.8,1136.9 -1247.5,1136.3 -1013.5,902 -1014.3,901.3 -780.2,667.2 -781.3,666.6 -547.2,432.5 -547.7,431.5 -313.6,197.5 "></polygon> <polygon class="st1" points="-1447.4,1359.4 -1678.7,1590.6 -1679.4,1589.9 -1910.7,1821.1 -1911.5,1820.3 -2142.7,2051.5 -2143.5,2050.8 -2377.6,2284.8 -2360.5,2301.9 -2126.4,2067.8 -2127.3,2067 -1896,1835.8 -1896.7,1835 -1665.5,1603.7 -1666.2,1603 -1435.1,1371.8 -1435.8,1371 -1201.8,1136.9 -1202.4,1136.2 -968.4,902 -969.2,901.3 -735.1,667.2 -736.2,666.6 -502.1,432.5 -502.6,431.5 -268.5,197.5 -269.3,196.6 -35.2,-37.4 -38.3,-40.5 -272.4,193.6 -273.2,192.8 -507.2,427 -508,426.2 -742.1,660.2 -742.9,659.4 -976.9,893.5 -977.7,892.7 -1211.7,1126.9 -1211.8,1126.8 -1212.6,1126.1 -1446.7,1360.1 "></polygon> <polygon class="st1" points="-1402.3,1359.4 -1633.5,1590.7 -1634.3,1589.9 -1865.5,1821.1 -1866.4,1820.3 -2097.6,2051.5 -2098.4,2050.8 -2332.4,2284.8 -2315.4,2301.9 -2081.3,2067.8 -2082.2,2067 -1850.9,1835.8 -1851.6,1835 -1620.4,1603.7 -1621.1,1603 -1389.9,1371.8 -1390.7,1371 -1156.6,1136.9 -1157.3,1136.3 -923.3,902 -924,901.3 -690,667.2 -691.1,666.6 -457,432.5 -457.5,431.5 -223.4,197.5 -224.2,196.7 9.9,-37.4 6.8,-40.5 -227.3,193.6 -228,192.8 -462.1,427 -462.9,426.2 -697,660.2 -697.8,659.4 -931.8,893.5 -932.6,892.7 -1166.6,1126.9 -1166.7,1126.8 -1167.5,1126.1 -1401.5,1360.1 "></polygon> <polygon class="st1" points="-1357.2,1359.4 -1588.4,1590.7 -1589.2,1589.9 -1820.4,1821.1 -1821.3,1820.3 -2052.5,2051.5 -2053.3,2050.8 -2287.3,2284.8 -2270.3,2301.9 -2036.2,2067.8 -2037,2067 -1805.8,1835.8 -1806.5,1835 -1575.3,1603.7 -1576,1603 -1344.8,1371.8 -1345.6,1371 -1111.5,1136.9 -1112.2,1136.2 -878.2,902 -878.9,901.3 -644.9,667.2 -646,666.6 -411.9,432.5 -412.4,431.5 -178.3,197.5 -179.1,196.7 55,-37.4 51.9,-40.5 -182.2,193.6 -182.9,192.8 -417,427 -417.8,426.2 -651.9,660.2 -652.7,659.4 -886.7,893.5 -887.5,892.7 -1121.5,1126.9 -1121.6,1126.8 -1122.4,1126.1 -1356.4,1360.1 "></polygon> <polygon class="st1" points="-1312.1,1359.4 -1543.3,1590.7 -1544.1,1589.9 -1775.3,1821.1 -1776.2,1820.3 -2007.3,2051.5 -2008.2,2050.8 -2242.2,2284.8 -2225.2,2301.8 -1991.1,2067.8 -1991.9,2067 -1760.7,1835.8 -1761.4,1835 -1530.2,1603.7 -1530.9,1603 -1299.7,1371.8 -1300.5,1371 -1066.4,1136.9 -1067,1136.2 -833.1,902 -833.8,901.3 -599.8,667.2 -600.9,666.6 -366.7,432.5 -367.3,431.5 -133.2,197.5 -134,196.7 100.2,-37.4 97,-40.5 -137.1,193.6 -137.8,192.8 -371.9,427 -372.7,426.2 -606.8,660.2 -607.6,659.4 -841.6,893.5 -842.4,892.7 -1076.4,1126.9 -1076.5,1126.8 -1077.3,1126.1 -1311.3,1360.1 "></polygon> <polygon class="st1" points="-1267,1359.4 -1498.2,1590.6 -1499,1589.8 -1730.2,1821.1 -1731,1820.3 -1962.2,2051.5 -1963,2050.8 -2197.1,2284.9 -2180.1,2301.9 -1946,2067.8 -1946.8,2067 -1715.5,1835.7 -1716.3,1835 -1485.1,1603.7 -1485.8,1603 -1254.6,1371.8 -1255.4,1371 -1021.3,1136.9 -1021.9,1136.2 -788,902 -788.7,901.3 -554.7,667.2 -555.8,666.6 -321.6,432.5 -322.2,431.5 -88.1,197.5 -88.9,196.7 145.3,-37.4 142.2,-40.5 -92,193.6 -92.7,192.8 -326.8,427 -327.6,426.2 -561.6,660.2 -562.5,659.4 -796.5,893.5 -797.3,892.7 -1031.3,1126.9 -1031.4,1126.8 -1032.1,1126.1 -1266.2,1360.1 "></polygon> <polygon class="st1" points="-1221.9,1359.4 -1453.1,1590.7 -1453.9,1589.9 -1685.1,1821.1 -1685.9,1820.3 -1917.1,2051.5 -1918,2050.8 -2152,2284.8 -2135,2301.9 -1900.9,2067.8 -1901.7,2067 -1670.4,1835.8 -1671.2,1835 -1440,1603.7 -1440.7,1603 -1209.5,1371.8 -1210.3,1371 -976.2,1136.9 -976.8,1136.2 -742.9,902 -743.6,901.3 -509.6,667.2 -510.6,666.6 -276.5,432.5 -277,431.5 -43,197.5 -43.7,196.7 190.4,-37.4 187.3,-40.5 -46.8,193.6 -47.6,192.8 -281.6,427 -282.5,426.2 -516.5,660.2 -517.4,659.4 -751.4,893.5 -752.2,892.7 -986.2,1126.9 -986.3,1126.8 -987,1126.1 -1221.1,1360.1 "></polygon> <polygon class="st1" points="-1176.8,1359.4 -1408,1590.7 -1408.8,1589.9 -1640,1821.1 -1640.8,1820.3 -1872,2051.5 -1872.8,2050.8 -2106.9,2284.8 -2089.9,2301.9 -1855.7,2067.8 -1856.6,2067 -1625.3,1835.8 -1626.1,1835 -1394.8,1603.7 -1395.6,1603 -1164.4,1371.8 -1165.2,1371 -931.1,1136.9 -931.7,1136.2 -697.8,902 -698.5,901.3 -464.4,667.2 -465.5,666.6 -231.4,432.5 -231.9,431.5 2.1,197.5 1.4,196.7 235.5,-37.4 232.4,-40.5 -1.7,193.6 -2.5,192.8 -236.5,427 -237.4,426.2 -471.4,660.2 -472.2,659.4 -706.2,893.5 -707,892.7 -941,1126.9 -941.2,1126.8 -941.9,1126.1 -1176,1360.1 "></polygon> <polygon class="st1" points="-1131.7,1359.4 -1362.9,1590.7 -1363.7,1589.9 -1594.9,1821.1 -1595.7,1820.3 -1826.9,2051.5 -1827.7,2050.8 -2061.8,2284.8 -2044.7,2301.9 -1810.6,2067.8 -1811.5,2067 -1580.2,1835.7 -1581,1834.9 -1349.7,1603.7 -1350.5,1603 -1119.3,1371.8 -1120.1,1371 -886,1136.9 -886.6,1136.2 -652.7,902 -653.4,901.3 -419.3,667.2 -420.4,666.6 -186.3,432.5 -186.8,431.5 47.2,197.5 46.5,196.7 280.6,-37.4 277.5,-40.5 43.4,193.6 42.6,192.8 -191.4,427 -192.3,426.2 -426.3,660.2 -427.1,659.4 -661.1,893.5 -661.9,892.7 -896,1126.9 -896.1,1126.8 -896.8,1126.1 -1130.9,1360.1 "></polygon> <polygon class="st1" points="-1086.6,1359.4 -1317.8,1590.6 -1318.5,1589.9 -1549.8,1821.1 -1550.6,1820.3 -1781.8,2051.5 -1782.6,2050.8 -2016.7,2284.8 -1999.6,2301.9 -1765.5,2067.8 -1766.4,2067 -1535.1,1835.7 -1535.9,1835 -1304.6,1603.7 -1305.4,1603 -1074.2,1371.7 -1075,1371 -840.9,1136.9 -841.5,1136.2 -607.6,902 -608.3,901.3 -374.2,667.2 -375.3,666.6 -141.2,432.5 -141.7,431.5 92.3,197.5 91.6,196.7 325.7,-37.4 322.6,-40.5 88.5,193.6 87.7,192.8 -146.3,427 -147.2,426.2 -381.2,660.2 -382,659.4 -616,893.5 -616.8,892.7 -850.8,1126.9 -851,1126.8 -851.7,1126.1 -1085.8,1360.1 "></polygon> <polygon class="st1" points="-1041.5,1359.4 -1272.7,1590.7 -1273.4,1589.9 -1504.7,1821.2 -1505.5,1820.3 -1736.7,2051.5 -1737.5,2050.8 -1971.6,2284.8 -1954.5,2301.9 -1720.4,2067.8 -1721.3,2067 -1490,1835.8 -1490.8,1835 -1259.5,1603.7 -1260.3,1603 -1029.1,1371.8 -1029.9,1371 -795.8,1136.9 -796.4,1136.2 -562.4,902.1 -563.2,901.3 -329.1,667.2 -330.2,666.6 -96.1,432.5 -96.6,431.5 137.5,197.5 136.7,196.7 370.8,-37.4 367.7,-40.5 133.6,193.6 132.8,192.8 -101.2,427 -102.1,426.2 -336.1,660.2 -336.9,659.4 -570.9,893.5 -571.7,892.7 -805.7,1126.9 -805.9,1126.8 -806.6,1126.1 -1040.7,1360.1 "></polygon> <polygon class="st1" points="-996.3,1359.4 -1227.6,1590.7 -1228.3,1589.9 -1459.6,1821.1 -1460.4,1820.3 -1691.6,2051.5 -1692.4,2050.8 -1926.5,2284.8 -1909.4,2301.9 -1675.3,2067.8 -1676.2,2067 -1444.9,1835.8 -1445.7,1835 -1214.4,1603.7 -1215.2,1603 -984,1371.8 -984.7,1371 -750.7,1136.9 -751.3,1136.2 -517.3,902 -518.1,901.3 -284,667.2 -285.1,666.6 -51,432.5 -51.5,431.5 182.6,197.5 181.8,196.7 415.9,-37.4 412.8,-40.5 178.7,193.6 177.9,192.8 -56.1,427 -56.9,426.2 -291,660.2 -291.8,659.4 -525.8,893.5 -526.6,892.7 -760.6,1126.9 -760.8,1126.8 -761.5,1126.1 -995.6,1360.1 "></polygon> <polygon class="st1" points="-951.2,1359.4 -1182.5,1590.7 -1183.2,1589.9 -1414.5,1821.1 -1415.3,1820.3 -1646.5,2051.5 -1647.3,2050.8 -1881.4,2284.8 -1864.3,2301.9 -1630.2,2067.8 -1631.1,2067 -1399.8,1835.8 -1400.5,1835 -1169.3,1603.7 -1170.1,1603 -938.9,1371.8 -939.6,1371 -705.6,1136.9 -706.2,1136.2 -472.2,902 -473,901.3 -238.9,667.2 -240,666.6 -5.9,432.5 -6.4,431.5 227.7,197.5 226.9,196.7 461,-37.4 457.9,-40.5 223.8,193.6 223,192.8 -11,427 -11.8,426.2 -245.9,660.2 -246.7,659.4 -480.7,893.5 -481.5,892.7 -715.5,1126.9 -715.7,1126.8 -716.4,1126.1 -950.5,1360.1 "></polygon> <polygon class="st1" points="-906.1,1359.4 -1137.4,1590.7 -1138.1,1589.9 -1369.3,1821.2 -1370.2,1820.3 -1601.4,2051.5 -1602.2,2050.8 -1836.2,2284.8 -1819.2,2301.9 -1585.1,2067.8 -1586,2067 -1354.7,1835.8 -1355.4,1835 -1124.2,1603.7 -1124.9,1603 -893.7,1371.8 -894.5,1371 -660.4,1136.9 -661.1,1136.2 -427.1,902 -427.8,901.3 -193.8,667.2 -194.9,666.6 39.2,432.5 38.7,431.5 272.8,197.5 272,196.7 506.1,-37.4 503,-40.5 268.9,193.6 268.2,192.8 34.1,427 33.3,426.2 -200.8,660.2 -201.6,659.4 -435.6,893.5 -436.4,892.7 -670.4,1126.9 -670.5,1126.8 -671.3,1126.1 -905.3,1360.1 "></polygon> <polygon class="st1" points="-861,1359.4 -1092.2,1590.7 -1093,1589.9 -1324.2,1821.1 -1325.1,1820.3 -1556.3,2051.5 -1557.1,2050.8 -1791.1,2284.8 -1774.1,2301.9 -1540,2067.8 -1540.8,2067 -1309.6,1835.8 -1310.3,1835 -1079.1,1603.7 -1079.8,1603 -848.6,1371.8 -849.4,1371 -615.3,1136.9 -616,1136.2 -382,902 -382.7,901.3 -148.7,667.2 -149.8,666.6 84.3,432.5 83.8,431.5 317.9,197.5 317.1,196.7 551.2,-37.4 548.1,-40.5 314,193.6 313.3,192.8 79.2,427 78.4,426.2 -155.7,660.2 -156.5,659.4 -390.5,893.5 -391.3,892.7 -625.3,1126.9 -625.4,1126.8 -626.2,1126.1 -860.2,1360.1 "></polygon> <polygon class="st1" points="-815.9,1359.4 -1047.1,1590.7 -1047.9,1589.9 -1279.1,1821.1 -1280,1820.3 -1511.2,2051.5 -1512,2050.8 -1746,2284.8 -1729,2301.9 -1494.9,2067.8 -1495.7,2067 -1264.5,1835.8 -1265.2,1835 -1034,1603.7 -1034.7,1603 -803.5,1371.8 -804.3,1371 -570.2,1136.9 -570.8,1136.2 -336.9,902 -337.6,901.3 -103.6,667.2 -104.7,666.6 129.5,432.5 128.9,431.5 363,197.5 362.2,196.7 596.4,-37.4 593.2,-40.5 359.1,193.6 358.4,192.8 124.3,427 123.5,426.2 -110.6,660.2 -111.4,659.4 -345.4,893.5 -346.2,892.7 -580.2,1126.9 -580.3,1126.8 -581,1126.1 -815.1,1360.1 "></polygon> <polygon class="st1" points="-770.8,1359.4 -1002,1590.7 -1002.8,1589.9 -1234,1821.1 -1234.9,1820.3 -1466,2051.5 -1466.9,2050.8 -1700.9,2284.8 -1683.9,2301.9 -1449.8,2067.8 -1450.6,2067 -1219.4,1835.8 -1220.1,1835 -988.8,1603.7 -989.6,1603 -758.4,1371.8 -759.2,1371 -525.1,1136.9 -525.7,1136.2 -291.8,902 -292.5,901.3 -58.5,667.2 -59.5,666.6 174.6,432.5 174,431.5 408.1,197.5 407.3,196.7 641.5,-37.4 638.3,-40.5 404.2,193.6 403.5,192.8 169.4,427 168.6,426.2 -65.4,660.2 -66.3,659.4 -300.3,893.5 -301.1,892.7 -535.1,1126.9 -535.2,1126.8 -535.9,1126.1 -770,1360.1 "></polygon> <polygon class="st1" points="-725.7,1359.4 -956.9,1590.7 -957.7,1589.8 -1188.9,1821.1 -1189.8,1820.3 -1420.9,2051.5 -1421.8,2050.8 -1655.8,2284.8 -1638.8,2301.9 -1404.7,2067.8 -1405.5,2067 -1174.2,1835.8 -1175,1835 -943.7,1603.7 -944.5,1603 -713.3,1371.8 -714.1,1371 -480,1136.9 -480.6,1136.2 -246.7,902 -247.4,901.3 -13.4,667.2 -14.5,666.6 219.7,432.5 219.2,431.5 453.2,197.5 452.4,196.7 686.6,-37.4 683.5,-40.5 449.3,193.6 448.6,192.8 214.5,427 213.7,426.2 -20.3,660.2 -21.2,659.4 -255.2,893.5 -256,892.7 -490,1126.9 -490.1,1126.8 -490.8,1126.1 -724.9,1360.1 "></polygon> <polygon class="st1" points="-680.6,1359.4 -911.8,1590.7 -912.6,1589.9 -1143.8,1821.1 -1144.6,1820.3 -1375.8,2051.5 -1376.6,2050.8 -1610.7,2284.8 -1593.6,2301.9 -1359.6,2067.8 -1360.4,2067 -1129.1,1835.8 -1129.9,1835 -898.6,1603.7 -899.4,1603 -668.2,1371.8 -669,1371 -434.9,1136.9 -435.5,1136.2 -201.6,902 -202.3,901.3 31.8,667.2 30.7,666.6 264.8,432.5 264.2,431.5 498.3,197.5 497.6,196.7 731.7,-37.4 728.6,-40.5 494.5,193.6 493.7,192.8 259.7,427 258.8,426.2 24.8,660.2 24,659.4 -210.1,893.5 -210.9,892.7 -444.9,1126.9 -445,1126.8 -445.7,1126.1 -679.8,1360.1 "></polygon> <polygon class="st1" points="-635.5,1359.4 -866.7,1590.7 -867.5,1589.9 -1098.7,1821.1 -1099.5,1820.3 -1330.7,2051.5 -1331.5,2050.8 -1565.6,2284.8 -1548.5,2301.9 -1314.4,2067.8 -1315.3,2067 -1084,1835.8 -1084.8,1835 -853.5,1603.7 -854.3,1603 -623.1,1371.8 -623.9,1371 -389.8,1136.9 -390.4,1136.2 -156.5,902 -157.2,901.3 76.9,667.2 75.8,666.6 309.9,432.5 309.4,431.5 543.4,197.5 542.7,196.7 776.8,-37.4 773.7,-40.5 539.6,193.6 538.8,192.8 304.8,427 303.9,426.2 69.9,660.2 69.1,659.4 -165,893.5 -165.8,892.7 -399.7,1126.9 -399.9,1126.8 -400.6,1126.1 -634.7,1360.1 "></polygon> <polygon class="st1" points="-590.4,1359.4 -821.6,1590.6 -822.4,1589.9 -1053.6,1821.1 -1054.4,1820.3 -1285.6,2051.5 -1286.4,2050.8 -1520.5,2284.8 -1503.4,2301.9 -1269.3,2067.8 -1270.2,2067 -1038.9,1835.8 -1039.7,1835 -808.4,1603.7 -809.2,1603 -578,1371.8 -578.8,1371 -344.7,1136.9 -345.3,1136.2 -111.4,902 -112.1,901.3 122,667.2 120.9,666.6 355,432.5 354.5,431.5 588.5,197.5 587.8,196.7 821.9,-37.4 818.8,-40.5 584.7,193.6 583.9,192.8 349.9,427 349,426.2 115,660.2 114.2,659.4 -119.9,893.5 -120.6,892.7 -354.6,1126.9 -354.8,1126.8 -355.5,1126.1 -589.6,1360.1 "></polygon> <polygon class="st1" points="-545.3,1359.4 -776.5,1590.7 -777.2,1589.8 -1008.5,1821.1 -1009.3,1820.3 -1240.5,2051.5 -1241.3,2050.8 -1475.4,2284.9 -1458.3,2301.9 -1224.2,2067.8 -1225.1,2067 -993.8,1835.7 -994.6,1835 -763.3,1603.7 -764.1,1603 -532.9,1371.7 -533.7,1371 -299.6,1136.9 -300.2,1136.3 -66.2,902 -67,901.3 167.1,667.2 166,666.6 400.1,432.5 399.6,431.5 633.7,197.5 632.9,196.7 867,-37.4 863.9,-40.5 629.8,193.6 629,192.8 395,427 394.2,426.2 160.1,660.2 159.3,659.4 -74.7,893.5 -75.5,892.7 -309.5,1127 -309.6,1126.8 -310.4,1126.1 -544.5,1360.1 "></polygon> <polygon class="st1" points="-500.1,1359.4 -731.4,1590.7 -732.1,1589.9 -963.4,1821.1 -964.2,1820.3 -1195.4,2051.5 -1196.2,2050.8 -1430.3,2284.9 -1413.2,2301.9 -1179.1,2067.8 -1180,2067 -948.7,1835.8 -949.5,1835 -718.2,1603.7 -719,1603 -487.8,1371.8 -488.6,1371 -254.5,1136.9 -255.1,1136.2 -21.1,902 -21.9,901.3 212.2,667.2 211.1,666.6 445.2,432.5 444.7,431.5 678.8,197.5 678,196.7 912.1,-37.4 909,-40.5 674.9,193.6 674.1,192.8 440.1,427 439.3,426.2 205.2,660.2 204.4,659.4 -29.6,893.5 -30.4,892.7 -264.4,1126.9 -264.6,1126.8 -265.3,1126.1 -499.4,1360.1 "></polygon> <polygon class="st1" points="-455,1359.4 -686.3,1590.7 -687,1589.9 -918.3,1821.1 -919.1,1820.3 -1150.3,2051.5 -1151.1,2050.8 -1385.2,2284.8 -1368.1,2301.9 -1134,2067.8 -1134.9,2067 -903.6,1835.8 -904.4,1835 -673.1,1603.7 -673.9,1603 -442.7,1371.8 -443.4,1371 -209.4,1136.9 -210,1136.2 24,902 23.2,901.3 257.3,667.2 256.2,666.6 490.3,432.5 489.8,431.5 723.9,197.5 723.1,196.7 957.2,-37.4 954.1,-40.5 720,193.6 719.2,192.8 485.2,427 484.4,426.2 250.3,660.2 249.5,659.4 15.5,893.5 14.7,892.7 -219.3,1126.9 -219.4,1126.8 -220.2,1126.1 -454.3,1360.1 "></polygon> <polygon class="st1" points="-409.9,1359.4 -641.2,1590.7 -641.9,1589.9 -873.2,1821.1 -874,1820.3 -1105.2,2051.5 -1106,2050.8 -1340.1,2284.8 -1323,2301.9 -1088.9,2067.8 -1089.7,2067 -858.5,1835.8 -859.2,1835 -628,1603.7 -628.8,1603 -397.6,1371.8 -398.3,1371 -164.2,1136.9 -164.9,1136.2 69.1,902 68.3,901.3 302.4,667.2 301.3,666.6 535.4,432.5 534.9,431.5 769,197.5 768.2,196.7 1002.3,-37.4 999.2,-40.5 765.1,193.6 764.3,192.8 530.3,427 529.5,426.2 295.4,660.2 294.6,659.4 60.6,893.5 59.8,892.7 -174.2,1126.9 -174.4,1126.8 -175.1,1126.1 -409.2,1360.1 "></polygon> <polygon class="st1" points="-364.8,1359.4 -596.1,1590.7 -596.8,1589.8 -828.1,1821.1 -828.9,1820.3 -1060.1,2051.5 -1060.9,2050.8 -1295,2284.8 -1277.9,2301.8 -1043.8,2067.8 -1044.6,2067 -813.4,1835.8 -814.1,1835 -582.9,1603.7 -583.7,1603 -352.5,1371.8 -353.2,1371 -119.1,1136.9 -119.8,1136.2 114.2,902 113.4,901.3 347.5,667.2 346.4,666.6 580.5,432.5 580,431.5 814.1,197.5 813.3,196.7 1047.4,-37.4 1044.3,-40.5 810.2,193.6 809.4,192.8 575.4,427 574.6,426.2 340.5,660.2 339.7,659.4 105.7,893.5 104.9,892.7 -129.1,1126.9 -129.2,1126.8 -130,1126.1 -364,1360.1 "></polygon> <polygon class="st1" points="-319.7,1359.4 -550.9,1590.7 -551.7,1589.9 -782.9,1821.1 -783.8,1820.3 -1015,2051.5 -1015.8,2050.8 -1249.8,2284.8 -1232.8,2301.9 -998.7,2067.8 -999.5,2067 -768.3,1835.8 -769,1835 -537.8,1603.7 -538.5,1603 -307.3,1371.8 -308.1,1371 -74,1136.9 -74.7,1136.2 159.3,902.1 158.6,901.3 392.6,667.2 391.6,666.6 625.7,432.5 625.1,431.5 859.2,197.5 858.4,196.7 1092.6,-37.4 1089.5,-40.5 855.3,193.6 854.6,192.8 620.5,427 619.7,426.2 385.6,660.2 384.8,659.4 150.8,893.5 150,892.7 -84,1126.9 -84.1,1126.8 -84.8,1126.1 -318.9,1360.1 "></polygon> <polygon class="st1" points="-274.6,1359.4 -505.8,1590.7 -506.6,1589.9 -737.8,1821.1 -738.7,1820.3 -969.8,2051.5 -970.7,2050.8 -1204.7,2284.8 -1187.7,2301.9 -953.5,2067.8 -954.4,2067 -723.2,1835.8 -723.9,1835 -492.7,1603.7 -493.4,1603 -262.2,1371.8 -263,1371 -28.9,1136.9 -29.5,1136.2 204.4,902 203.7,901.3 437.7,667.2 436.6,666.6 670.8,432.5 670.3,431.5 904.3,197.5 903.5,196.7 1137.7,-37.4 1134.6,-40.5 900.4,193.6 899.7,192.8 665.6,427 664.8,426.2 430.7,660.2 429.9,659.4 195.9,893.5 195.1,892.7 -38.9,1126.9 -39,1126.8 -39.7,1126.1 -273.8,1360.1 "></polygon> <polygon class="st1" points="-229.5,1359.4 -460.7,1590.7 -461.5,1589.9 -692.7,1821.1 -693.5,1820.3 -924.7,2051.5 -925.6,2050.8 -1159.6,2284.9 -1142.6,2301.9 -908.5,2067.8 -909.3,2067 -678,1835.7 -678.8,1835 -447.5,1603.7 -448.3,1603 -217.1,1371.8 -217.9,1371 16.2,1136.9 15.6,1136.2 249.5,902 248.8,901.3 482.8,667.2 481.7,666.6 715.9,432.5 715.4,431.5 949.4,197.5 948.6,196.7 1182.8,-37.4 1179.7,-40.5 945.5,193.6 944.8,192.8 710.7,427 709.9,426.2 475.9,660.2 475,659.4 241,893.5 240.2,892.7 6.2,1126.9 6.1,1126.8 5.4,1126.1 -228.7,1360.1 "></polygon> <polygon class="st1" points="-184.4,1359.4 -415.6,1590.7 -416.4,1589.9 -647.6,1821.1 -648.4,1820.3 -879.6,2051.5 -880.4,2050.8 -1114.5,2284.8 -1097.5,2301.9 -863.3,2067.8 -864.2,2067 -632.9,1835.8 -633.7,1835 -402.4,1603.7 -403.2,1603 -172,1371.8 -172.8,1371 61.3,1136.9 60.7,1136.2 294.6,902 293.9,901.3 528,667.2 526.9,666.6 761,432.5 760.5,431.5 994.5,197.5 993.8,196.7 1227.9,-37.4 1224.8,-40.5 990.6,193.6 989.9,192.8 755.8,427 755,426.2 521,660.2 520.2,659.4 286.1,893.5 285.3,892.7 51.3,1126.9 51.2,1126.8 50.5,1126.1 -183.6,1360.1 "></polygon> <polygon class="st1" points="-139.3,1359.4 -370.5,1590.7 -371.3,1589.9 -602.5,1821.1 -603.3,1820.3 -834.5,2051.5 -835.3,2050.8 -1069.4,2284.8 -1052.4,2301.9 -818.2,2067.8 -819.1,2067 -587.8,1835.8 -588.6,1835 -357.3,1603.7 -358.1,1603 -126.9,1371.8 -127.7,1371 106.4,1136.9 105.8,1136.2 339.7,902 339,901.3 573.1,667.2 572,666.6 806.1,432.5 805.6,431.5 1039.6,197.5 1038.9,196.7 1273,-37.4 1269.9,-40.5 1035.7,193.6 1035,192.8 800.9,427 800.1,426.2 566.1,660.2 565.3,659.4 331.2,893.5 330.5,892.7 96.5,1126.9 96.3,1126.8 95.6,1126.1 -138.5,1360.1 "></polygon> <polygon class="st1" points="-94.2,1359.4 -325.4,1590.7 -326.2,1589.9 -557.4,1821.1 -558.2,1820.3 -789.4,2051.5 -790.2,2050.8 -1024.3,2284.8 -1007.3,2301.9 -773.1,2067.8 -774,2067 -542.7,1835.8 -543.5,1835 -312.2,1603.7 -313,1603 -81.8,1371.8 -82.6,1371 151.5,1136.9 150.9,1136.2 384.9,902 384.1,901.3 618.2,667.2 617.1,666.6 851.2,432.5 850.7,431.5 1084.7,197.5 1084,196.7 1318.1,-37.4 1315,-40.5 1080.9,193.6 1080.1,192.8 846.1,427 845.2,426.2 611.2,660.2 610.4,659.4 376.3,893.5 375.6,892.7 141.6,1126.9 141.4,1126.8 140.7,1126.1 -93.4,1360.1 "></polygon> <polygon class="st1" points="-49.1,1359.4 -280.3,1590.7 -281.1,1589.9 -512.3,1821.1 -513.1,1820.3 -744.3,2051.5 -745.1,2050.8 -979.2,2284.8 -962.1,2301.9 -728,2067.8 -728.9,2067 -497.6,1835.8 -498.4,1835 -267.1,1603.7 -267.9,1603 -36.7,1371.8 -37.5,1371 196.7,1136.9 196,1136.2 430,902 429.2,901.3 663.3,667.2 662.2,666.6 896.3,432.5 895.8,431.5 1129.9,197.5 1129.1,196.7 1363.2,-37.4 1360.1,-40.5 1126,193.6 1125.2,192.8 891.2,427 890.3,426.2 656.3,660.2 655.5,659.4 421.4,893.5 420.7,892.7 186.7,1126.9 186.6,1126.8 185.8,1126.1 -48.3,1360.1 "></polygon> <polygon class="st1" points="-4,1359.4 -235.2,1590.7 -236,1589.9 -467.2,1821.1 -468,1820.3 -699.2,2051.5 -700,2050.8 -934.1,2284.8 -917,2301.9 -682.9,2067.8 -683.8,2067 -452.5,1835.8 -453.2,1835 -222,1603.7 -222.8,1603 8.4,1371.8 7.7,1371 241.8,1136.9 241.1,1136.2 475,902 474.3,901.3 708.4,667.2 707.3,666.6 941.4,432.5 940.9,431.5 1175,197.5 1174.2,196.7 1408.3,-37.4 1405.2,-40.5 1171.1,193.6 1170.3,192.8 936.3,427 935.5,426.2 701.4,660.2 700.6,659.4 466.6,893.5 465.8,892.7 231.8,1126.9 231.7,1126.8 230.9,1126.1 -3.2,1360.1 "></polygon> <polygon class="st1" points="41.2,1359.4 -190.1,1590.7 -190.8,1589.9 -422.1,1821.1 -422.9,1820.3 -654.1,2051.5 -654.9,2050.8 -889,2284.8 -871.9,2301.9 -637.8,2067.8 -638.7,2067 -407.4,1835.8 -408.1,1835 -176.9,1603.7 -177.7,1603 53.5,1371.8 52.8,1371 286.9,1136.9 286.2,1136.2 520.2,902 519.4,901.3 753.5,667.2 752.4,666.6 986.5,432.5 986,431.5 1220.1,197.5 1219.3,196.7 1453.4,-37.4 1450.3,-40.5 1216.2,193.6 1215.4,192.8 981.4,427 980.6,426.2 746.5,660.2 745.7,659.4 511.7,893.5 510.9,892.7 276.9,1126.9 276.8,1126.8 276,1126.1 41.9,1360.1 "></polygon> <polygon class="st1" points="86.3,1359.4 -145,1590.7 -145.7,1589.9 -377,1821.1 -377.8,1820.3 -609,2051.5 -609.8,2050.8 -843.9,2284.8 -826.8,2301.9 -592.7,2067.8 -593.5,2067 -362.3,1835.8 -363,1835 -131.8,1603.7 -132.6,1603 98.6,1371.8 97.9,1371 332,1136.9 331.3,1136.2 565.3,902 564.5,901.3 798.6,667.2 797.5,666.6 1031.6,432.5 1031.1,431.5 1265.2,197.5 1264.4,196.7 1498.5,-37.4 1495.4,-40.5 1261.3,193.6 1260.5,192.8 1026.5,427 1025.7,426.2 791.6,660.2 790.8,659.4 556.8,893.5 556,892.7 322,1126.9 321.9,1126.8 321.1,1126.1 87.1,1360.1 "></polygon> <polygon class="st1" points="131.4,1359.4 -99.9,1590.7 -100.6,1589.9 -331.9,1821.1 -332.7,1820.3 -563.9,2051.5 -564.7,2050.8 -798.8,2284.8 -781.7,2301.9 -547.6,2067.8 -548.4,2067 -317.2,1835.8 -317.9,1835 -86.7,1603.7 -87.5,1603 143.7,1371.8 143,1371 377.1,1136.9 376.4,1136.2 610.4,902 609.6,901.3 843.7,667.2 842.6,666.6 1076.7,432.5 1076.2,431.5 1310.3,197.5 1309.5,196.7 1543.6,-37.4 1540.5,-40.5 1306.4,193.6 1305.6,192.8 1071.6,427 1070.8,426.2 836.7,660.2 835.9,659.4 601.9,893.5 601.1,892.7 367.1,1126.9 367,1126.8 366.2,1126.1 132.2,1360.1 "></polygon> <polygon class="st1" points="176.5,1359.4 -54.8,1590.7 -55.5,1589.9 -286.7,1821.1 -287.6,1820.3 -518.7,2051.5 -519.6,2050.8 -753.6,2284.8 -736.6,2301.9 -502.5,2067.8 -503.3,2067 -272.1,1835.8 -272.8,1835 -41.6,1603.7 -42.3,1603 188.9,1371.8 188.1,1371 422.2,1136.9 421.5,1136.2 655.5,902 654.7,901.3 888.8,667.2 887.7,666.6 1121.8,432.5 1121.3,431.5 1355.4,197.5 1354.6,196.7 1588.7,-37.4 1585.6,-40.5 1351.5,193.6 1350.7,192.8 1116.7,427 1115.9,426.2 881.8,660.2 881,659.4 647,893.5 646.2,892.7 412.2,1126.9 412.1,1126.8 411.4,1126.1 177.3,1360.1 "></polygon> <polygon class="st1" points="221.6,1359.4 -9.6,1590.7 -10.4,1589.9 -241.6,1821.1 -242.4,1820.3 -473.7,2051.5 -474.5,2050.8 -708.5,2284.8 -691.5,2301.9 -457.4,2067.8 -458.2,2067 -227,1835.8 -227.7,1835 3.5,1603.7 2.8,1603 234,1371.8 233.2,1371 467.3,1136.9 466.6,1136.2 700.6,902 699.9,901.3 933.9,667.2 932.9,666.6 1167,432.5 1166.4,431.5 1400.5,197.5 1399.7,196.7 1633.9,-37.4 1630.7,-40.5 1396.6,193.6 1395.9,192.8 1161.8,427 1161,426.2 926.9,660.2 926.1,659.4 692.1,893.5 691.3,892.7 457.3,1126.9 457.2,1126.8 456.5,1126.1 222.4,1360.1 "></polygon> <polygon class="st1" points="266.7,1359.4 35.5,1590.7 34.7,1589.9 -196.5,1821.1 -197.3,1820.3 -428.5,2051.5 -429.4,2050.8 -663.4,2284.8 -646.4,2301.9 -412.3,2067.8 -413.1,2067 -181.9,1835.8 -182.6,1835 48.6,1603.7 47.9,1603 279.1,1371.8 278.3,1371 512.4,1136.9 511.7,1136.2 745.7,902 745,901.3 979,667.2 978,666.6 1212.1,432.5 1211.6,431.5 1445.6,197.5 1444.8,196.7 1679,-37.4 1675.8,-40.5 1441.7,193.6 1441,192.8 1206.9,427 1206.1,426.2 972,660.2 971.2,659.4 737.2,893.5 736.4,892.7 502.4,1126.9 502.3,1126.8 501.6,1126.1 267.5,1360.1 "></polygon> <polygon class="st1" points="311.8,1359.4 80.6,1590.7 79.8,1589.9 -151.4,1821.1 -152.2,1820.3 -383.4,2051.5 -384.3,2050.8 -618.3,2284.8 -601.3,2301.9 -367.1,2067.8 -368,2067 -136.7,1835.8 -137.5,1835 93.8,1603.7 93,1603 324.2,1371.8 323.4,1371 557.5,1136.9 556.9,1136.2 790.8,902 790.1,901.3 1024.2,667.2 1023.1,666.6 1257.2,432.5 1256.7,431.5 1490.7,197.5 1489.9,196.7 1724.1,-37.4 1721,-40.5 1486.8,193.6 1486.1,192.8 1252,427 1251.2,426.2 1017.2,660.2 1016.3,659.4 782.3,893.5 781.5,892.7 547.5,1126.9 547.4,1126.8 546.7,1126.1 312.6,1360.1 "></polygon> <polygon class="st1" points="356.9,1359.4 125.7,1590.7 124.9,1589.9 -106.3,1821.1 -107.1,1820.3 -338.3,2051.5 -339.2,2050.8 -573.2,2284.8 -556.2,2301.9 -322.1,2067.8 -322.9,2067 -91.6,1835.8 -92.4,1835 138.8,1603.7 138.1,1603 369.3,1371.8 368.5,1371 602.6,1136.9 602,1136.2 835.9,902 835.2,901.3 1069.3,667.2 1068.2,666.6 1302.3,432.5 1301.8,431.5 1535.8,197.5 1535.1,196.7 1769.2,-37.4 1766.1,-40.5 1531.9,193.6 1531.2,192.8 1297.1,427 1296.3,426.2 1062.3,660.2 1061.5,659.4 827.4,893.5 826.6,892.7 592.7,1126.9 592.5,1126.8 591.8,1126.1 357.7,1360.1 "></polygon> <polygon class="st1" points="402,1359.4 170.8,1590.7 170,1589.9 -61.2,1821.1 -62,1820.3 -293.2,2051.5 -294,2050.8 -528.1,2284.8 -511.1,2301.9 -276.9,2067.8 -277.8,2067 -46.5,1835.8 -47.3,1835 184,1603.7 183.2,1603 414.4,1371.8 413.6,1371 647.7,1136.9 647.1,1136.2 881,902 880.3,901.3 1114.4,667.2 1113.3,666.6 1347.4,432.5 1346.9,431.5 1580.9,197.5 1580.2,196.7 1814.3,-37.4 1811.2,-40.5 1577.1,193.6 1576.3,192.8 1342.2,427 1341.4,426.2 1107.4,660.2 1106.6,659.4 872.5,893.5 871.8,892.7 637.8,1126.9 637.6,1126.8 636.9,1126.1 402.8,1360.1 "></polygon> <polygon class="st1" points="447.1,1359.4 215.9,1590.7 215.1,1589.9 -16.1,1821.1 -16.9,1820.3 -248.1,2051.5 -248.9,2050.8 -483,2284.8 -465.9,2301.9 -231.8,2067.8 -232.7,2067 -1.4,1835.8 -2.2,1835 229.1,1603.7 228.3,1603 459.5,1371.8 458.7,1371 692.9,1136.9 692.2,1136.2 926.1,902 925.4,901.3 1159.5,667.2 1158.4,666.6 1392.5,432.5 1392,431.5 1626.1,197.5 1625.3,196.7 1859.4,-37.4 1856.3,-40.5 1622.2,193.6 1621.4,192.8 1387.4,427 1386.5,426.2 1152.5,660.2 1151.7,659.4 917.6,893.5 916.9,892.7 682.9,1126.9 682.7,1126.8 682,1126.1 447.9,1360.1 "></polygon> <polygon class="st1" points="492.2,1359.4 261,1590.7 260.2,1589.9 29,1821.1 28.2,1820.3 -203,2051.5 -203.8,2050.8 -437.9,2284.8 -420.8,2301.9 -186.7,2067.8 -187.6,2067 43.7,1835.8 43,1835 274.2,1603.7 273.4,1603 504.6,1371.8 503.8,1371 738,1136.9 737.3,1136.2 971.2,902 970.5,901.3 1204.6,667.2 1203.5,666.6 1437.6,432.5 1437.1,431.5 1671.2,197.5 1670.4,196.7 1904.5,-37.4 1901.4,-40.5 1667.3,193.6 1666.5,192.8 1432.5,427 1431.7,426.2 1197.6,660.2 1196.8,659.4 962.8,893.5 962,892.7 728,1126.9 727.9,1126.8 727.1,1126.1 493,1360.1 "></polygon> <polygon class="st1" points="537.4,1359.4 306.1,1590.7 305.4,1589.9 74.1,1821.1 73.3,1820.3 -157.9,2051.5 -158.7,2050.8 -392.8,2284.8 -375.7,2301.9 -141.6,2067.8 -142.4,2067 88.8,1835.8 88,1835 319.3,1603.7 318.5,1603 549.7,1371.8 549,1371 783.1,1136.9 782.4,1136.2 1016.4,902 1015.6,901.3 1249.7,667.2 1248.6,666.6 1482.7,432.5 1482.2,431.5 1716.3,197.5 1715.5,196.7 1949.6,-37.4 1946.5,-40.5 1712.4,193.6 1711.6,192.8 1477.6,427 1476.8,426.2 1242.7,660.2 1241.9,659.4 1007.9,893.5 1007.1,892.7 773.1,1126.9 773,1126.8 772.2,1126.1 538.1,1360.1 "></polygon> <polygon class="st1" points="582.5,1359.4 351.2,1590.7 350.5,1589.9 119.2,1821.1 118.4,1820.3 -112.8,2051.5 -113.6,2050.8 -347.7,2284.8 -330.6,2301.9 -96.5,2067.8 -97.3,2067 133.9,1835.8 133.2,1835 364.4,1603.7 363.6,1603 594.8,1371.8 594.1,1371 828.2,1136.9 827.5,1136.2 1061.5,902 1060.7,901.3 1294.8,667.2 1293.7,666.6 1527.8,432.5 1527.3,431.5 1761.4,197.5 1760.6,196.7 1994.7,-37.4 1991.6,-40.5 1757.5,193.6 1756.7,192.8 1522.7,427 1521.9,426.2 1287.8,660.2 1287,659.4 1053,893.5 1052.2,892.7 818.2,1126.9 818.1,1126.8 817.3,1126.1 583.3,1360.1 "></polygon> <polygon class="st1" points="627.6,1359.4 396.3,1590.7 395.6,1589.9 164.3,1821.1 163.5,1820.3 -67.7,2051.5 -68.5,2050.8 -302.6,2284.8 -285.5,2301.9 -51.4,2067.8 -52.2,2067 179,1835.8 178.3,1835 409.5,1603.7 408.7,1603 639.9,1371.8 639.2,1371 873.3,1136.9 872.6,1136.2 1106.6,902 1105.8,901.3 1339.9,667.2 1338.8,666.6 1572.9,432.5 1572.4,431.5 1806.5,197.5 1805.7,196.7 2039.8,-37.4 2036.7,-40.5 1802.6,193.6 1801.9,192.8 1567.8,427 1567,426.2 1332.9,660.2 1332.1,659.4 1098.1,893.5 1097.3,892.7 863.3,1126.9 863.2,1126.8 862.4,1126.1 628.4,1360.1 "></polygon> <polygon class="st1" points="672.7,1359.4 441.4,1590.7 440.7,1589.9 209.5,1821.1 208.6,1820.3 -22.6,2051.5 -23.4,2050.8 -257.4,2284.8 -240.4,2301.9 -6.3,2067.8 -7.1,2067 224.1,1835.8 223.4,1835 454.6,1603.7 453.8,1603 685.1,1371.8 684.3,1371 918.4,1136.9 917.7,1136.2 1151.7,902 1150.9,901.3 1385,667.2 1383.9,666.6 1618,432.5 1617.5,431.5 1851.6,197.5 1850.8,196.7 2084.9,-37.4 2081.8,-40.5 1847.7,193.6 1846.9,192.8 1612.9,427 1612.1,426.2 1378,660.2 1377.2,659.4 1143.2,893.5 1142.4,892.7 908.4,1126.9 908.3,1126.8 907.5,1126.1 673.5,1360.1 "></polygon> </g> </g> </g> </g> </g> </g> </svg> 