<?xml version="1.0" encoding="UTF-8"?> <svg xmlns="http://www.w3.org/2000/svg" viewBox="0 0 456.51 146.94"> <defs> <style>.cls-1{fill:#fff;}</style> </defs> <g id="Слой_2" data-name="Слой 2"> <g id="Слой_1-2" data-name="Слой 1"> <path class="cls-1" d="M199.18,105V87.63h10.34v45H199.18V114.19H184.25v18.44H173.91v-45h10.34V105Z"></path> <path class="cls-1" d="M258.28,109.3c0,14.56-9.24,24.82-22,24.82s-22-10.26-22-24.82c0-13.61,10.55-23.16,22-23.16S258.28,95.69,258.28,109.3Zm-33.24,0c0,7.76,5.06,13.43,11.24,13.43s11.23-5.67,11.23-13.43c0-6.2-5.06-11.87-11.23-11.87S225,103.15,225,109.35Z"></path> <path class="cls-1" d="M263.08,132.63v-45h14.77c7.07,0,11.82,3.1,11.82,11.7,0,4.06-1.16,7.34-4.38,9.19v.12c5.7.84,8.13,5.19,8.13,11.46,0,9.43-7.13,12.53-14.41,12.53Zm10.34-27.33h1.16c2.74,0,5.59-.54,5.59-4.36,0-4.12-3.21-4.36-6-4.36h-.74Zm0,18.38h1.32c3.06,0,8.23.18,8.23-4.77,0-5.43-5.12-4.9-8.49-4.9h-1.06Z"></path> <path class="cls-1" d="M340.79,109.3c0,14.56-9.23,24.82-22,24.82s-22-10.26-22-24.82c0-13.61,10.55-23.16,22-23.16S340.79,95.69,340.79,109.3Zm-33.23,0c0,7.76,5.06,13.43,11.24,13.43S330,117.11,330,109.35c0-6.2-5.06-11.87-11.23-11.87S307.56,103.15,307.56,109.35Z"></path> <path class="cls-1" d="M356.5,105h5.07c8.23,0,14.93,2.15,14.93,13.91,0,9.9-6.39,13.72-14.41,13.72H346.16v-45H372v9.91H356.5Zm0,18.68h1.85c3.06,0,7.7.18,7.7-4.77,0-5.2-4.59-4.9-8-4.9H356.5Z"></path> <path class="cls-1" d="M396.63,132.63H386.08l6-13.36L377.37,87.63h11.24l8.81,19.88,9-19.88h11.24Z"></path> <path class="cls-1" d="M422.16,143.31h-9.28v-20l1,.06c4.54.3,7.81-8.29,7.81-16.59V87.63H451.5v35.69h5v20h-9.29V132.63H422.16Zm19-46.43H432V105c0,9.07-1.85,15.52-4.85,18.38h14Z"></path> <path class="cls-1" d="M190.11,72.28l-3.24,8.17h-13l18.08-47h13.33l17.7,47H210l-3.06-8.17ZM198.65,48h-.12l-5.05,15h10.16Z"></path> <path class="cls-1" d="M273.35,80.45H261.14V43.12H248.61V62.38c0,11.4-3.11,18.07-16.2,18.07h-3.18V70.79h.5c5.48,0,6.67-2.68,6.67-8.41V33.46h37Z"></path> <path class="cls-1" d="M301.33,80.45h-18.7v-47h12.22V49h6.91C312.42,49,318.4,53.9,318.4,65,318.4,75.78,311.42,80.45,301.33,80.45ZM296.9,58.89h-2V70.6h2c4.74,0,8.79-.06,8.79-6C305.69,58.89,301.33,58.89,296.9,58.89Z"></path> <path class="cls-1" d="M334.43,61.19c-6.67-1.18-10.28-6.79-10.28-13.27,0-10,7-14.46,16.32-14.46h18.27v47H346.52V62.38h-.12L334.87,80.45H319.66Zm12.09-18.38h-1.18c-4,0-8.48.74-8.48,5.86s4.49,5.85,8.48,5.85h1.18Z"></path> <path class="cls-1" d="M396.94,51.59V33.46h12.21v47H396.94V61.19H379.3V80.45H367.08v-47H379.3V51.59Z"></path> <path class="cls-1" d="M451.23,49.23a13.27,13.27,0,0,0-10.72-5.18c-7.48,0-12.53,5.74-12.53,13s5.11,12.78,12.71,12.78a14.09,14.09,0,0,0,10.54-5V79.52c-4.05,1.24-7,2.18-10.78,2.18a26.18,26.18,0,0,1-17.64-6.92C417.63,70.1,415.27,64,415.27,57a24.61,24.61,0,0,1,6.91-17.2,25.47,25.47,0,0,1,17.89-7.61,28.61,28.61,0,0,1,11.16,2.37Z"></path> <path class="cls-1" d="M66.37,143.07a10.51,10.51,0,0,0-3.66,1.06,22.24,22.24,0,0,0-2.78,1.54,73.75,73.75,0,0,0,13.55,1.27,74.51,74.51,0,0,0,12-1C78.34,144.07,72.08,143,68,143,67.39,143,66.86,143,66.37,143.07ZM93,135c-1.13-.4-2.28-.79-3.45-1.18-9.29-3.15-17.86-5-22.92-5q-.73,0-1.38.06a10,10,0,0,0-3.84,1.2c-3.44,1.79-6.45,4.79-8.95,7.47-1.58,1.7-3,3.4-4.24,5,1.38.51,2.8,1,4.21,1.38,3.91-4.33,7.79-6.63,11.76-7,.42,0,.85,0,1.32,0,5.17,0,13.9,2.05,23.34,5.49l2.69,1c.66.24,1.33.51,2,.78a75.15,75.15,0,0,0,11-4.1c-.62-.35-1.29-.69-2-1A94.56,94.56,0,0,0,93,135ZM73.48,0A73.48,73.48,0,0,0,44.83,141.14a62.33,62.33,0,0,1,4-7.1c4.79-7.32,9.55-11.07,14.56-11.47.37,0,.76,0,1.18,0,5.37,0,14.84,2.53,24.73,6.59l.82.33,2,.83A100.43,100.43,0,0,1,103.33,136a41.58,41.58,0,0,1,4,2.69A73.47,73.47,0,0,0,73.48,0Zm37.86,133.39h0a.87.87,0,0,1-.81-.45c-.91-1.87-3.46-4-7.18-6.13a89.05,89.05,0,0,0-9.91-4.73c-.86-.35-1.73-.68-2.6-1l-1-.39c-9.78-3.75-19.12-6.07-24.39-6.07-.43,0-.83,0-1.21.05a9.63,9.63,0,0,0-4,1.38c-3.59,2.06-6.72,5.67-9,8.6-4.21,5.28-7.2,10.48-7.74,12.21a.87.87,0,0,1-.74.57h-.06a.8.8,0,0,1-.74-.5,6.22,6.22,0,0,1,.36-3.83c.24-.74.57-1.62,1-2.63a77.79,77.79,0,0,1,4.49-9.33c4.82-8.27,9.66-12.49,14.81-12.9.35,0,.71,0,1.09,0,5.67,0,15.66,2.94,26.08,7.68l.23.11,2.69,1.23a97.82,97.82,0,0,1,11.66,6.57,26.77,26.77,0,0,1,7.24,6.55,3.8,3.8,0,0,1,.63,1.5,3.65,3.65,0,0,1,0,.87A.81.81,0,0,1,111.34,133.39Zm.94-11.16h0a.86.86,0,0,1-.84-.52c-.81-2.12-3.39-4.63-7.28-7.08a85.16,85.16,0,0,0-10.32-5.49c-1.1-.5-2.22-1-3.36-1.45l-.43-.18c-10.38-4.38-20.27-7.11-25.8-7.11-.39,0-.77,0-1.12,0A9.52,9.52,0,0,0,58.9,102c-2.89,1.82-5.8,4.91-9.13,9.73-4.19,6-7,11.9-7.37,13.84a.88.88,0,0,1-.76.64h-.07a.8.8,0,0,1-.77-.56,8.18,8.18,0,0,1,.37-4.14c.24-.84.56-1.83.94-2.91a83.27,83.27,0,0,1,4.44-10.38c4.76-9.1,9.83-13.92,15.07-14.34.32,0,.66,0,1,0,5.85,0,16.6,3.45,27.4,8.78,1,.5,2,1,3,1.52a91.17,91.17,0,0,1,12,7.44,26.77,26.77,0,0,1,7.3,7.42,4.32,4.32,0,0,1,.6,1.59,3.92,3.92,0,0,1,0,.9A.84.84,0,0,1,112.28,122.23Zm.92-11.16h0a.88.88,0,0,1-.87-.58c-.69-2.41-3.24-5.19-7.36-8a82.86,82.86,0,0,0-10.73-6.24c-1.29-.64-2.61-1.25-4-1.86-10.79-5-21.46-8.15-27.19-8.15-.37,0-.71,0-1,0A9.22,9.22,0,0,0,57.64,88c-3,2-6,5.54-9.25,10.85-4.08,6.67-6.73,13.38-7,15.46a.85.85,0,0,1-.77.72h-.07a.84.84,0,0,1-.8-.61,10.85,10.85,0,0,1,.39-4.48c.24-.93.54-2,.91-3.19A87.33,87.33,0,0,1,45.44,95.3c4.77-10,9.91-15.36,15.31-15.78.31,0,.63,0,1,0,6,0,17.55,4,28.69,9.86,1.06.56,2.11,1.12,3.15,1.71A88.59,88.59,0,0,1,106,99.37a27.59,27.59,0,0,1,7.36,8.28,5.22,5.22,0,0,1,.59,1.68,7.82,7.82,0,0,1,.06,1A.86.86,0,0,1,113.2,111.07Zm.93-11.16h0a.86.86,0,0,1-.89-.65c-.59-2.64-3.17-5.76-7.45-9a84.63,84.63,0,0,0-11.15-7c-1.34-.72-2.73-1.4-4.12-2.09C79.33,75.68,67.85,72,62,72c-.35,0-.67,0-1,0a9.18,9.18,0,0,0-4.61,1.89c-3.09,2.22-6.14,6.14-9.34,12-4,7.37-6.47,14.78-6.63,17.09a.83.83,0,0,1-.78.78h-.07a.85.85,0,0,1-.83-.66,13.84,13.84,0,0,1,.41-4.8c.22-1,.51-2.21.87-3.48a93.64,93.64,0,0,1,4.34-12.46c4.77-11,10-16.77,15.54-17.21q.45,0,.93,0c6.27,0,18.32,4.4,30,11,1.1.62,2.19,1.24,3.26,1.88a87.46,87.46,0,0,1,12.82,9.19c3.66,3.2,6.15,6.28,7.43,9.13a7.77,7.77,0,0,1,.56,1.78,6.78,6.78,0,0,1,.07,1A.85.85,0,0,1,114.13,99.91Zm.93-11.16h0a.88.88,0,0,1-.92-.71c-.48-2.88-3.09-6.32-7.55-10A83.35,83.35,0,0,0,95,70.34c-1.4-.8-2.84-1.57-4.28-2.32C79,61.9,67,57.78,60.83,57.78c-.34,0-.65,0-.95,0a9,9,0,0,0-4.79,2.06c-3.17,2.4-6.34,6.82-9.44,13.12C42,80.45,39.42,88.85,39.4,91.72a.89.89,0,0,1-.82.85h-.06a.85.85,0,0,1-.85-.73,16.81,16.81,0,0,1,.42-5.11c.22-1.12.49-2.39.83-3.77a104.78,104.78,0,0,1,4.29-13.5C46.5,61.27,51.9,51.38,59,50.83a8.57,8.57,0,0,1,.89,0c6.45,0,19.31,5,31.27,12.05,1.13.67,2.26,1.36,3.38,2.06A89.29,89.29,0,0,1,107.75,75c3.73,3.52,6.25,6.89,7.49,10a9,9,0,0,1,.64,2.91A.89.89,0,0,1,115.06,88.75ZM116,77.59h0a.91.91,0,0,1-1-.78c-.36-3.11-3-6.88-7.65-10.9a85.77,85.77,0,0,0-12-8.51C94,56.53,92.49,55.67,91,54.85c-12-6.64-24.9-11.27-31.28-11.27-.31,0-.61,0-.89,0a9.31,9.31,0,0,0-5,2.22c-3.28,2.64-6.5,7.44-9.54,14.27-3.62,8.13-6,17.25-5.88,20.34a.91.91,0,0,1-.81.92h-.07a.9.9,0,0,1-.89-.78,22.86,22.86,0,0,1,.44-5.44c.21-1.21.47-2.58.79-4A112.55,112.55,0,0,1,42.1,56.55c3.27-8.84,8.72-19.5,16-20.08q.42,0,.87,0c6.74,0,20.13,5.4,32.54,13.14,1.19.73,2.35,1.49,3.5,2.25a89.71,89.71,0,0,1,13.59,10.92c3.84,3.86,6.37,7.51,7.55,10.86a11.13,11.13,0,0,1,.52,2,7.62,7.62,0,0,1,.11,1.06A.89.89,0,0,1,116,77.59Zm.92-11.16h0a.91.91,0,0,1-1-.83c-.26-3.39-2.87-7.38-7.73-11.87a95.67,95.67,0,0,0-17-12c-12.63-7.26-26-12.32-32.64-12.32-.3,0-.59,0-.85,0-6.84.54-12.23,11.38-14.83,17.79-3.58,8.79-5.78,18.64-5.53,22a.9.9,0,0,1-.83,1h-.07a.91.91,0,0,1-.9-.83,46.75,46.75,0,0,1,1.21-10.11A120.12,120.12,0,0,1,41,43.62c3.28-9.48,8.77-20.91,16.29-21.49a7.33,7.33,0,0,1,.83,0c7,0,20.88,5.85,33.81,14.23a96.74,96.74,0,0,1,17.59,14.23c5.13,5.46,7.9,10.48,8.25,14.91A.9.9,0,0,1,116.92,66.43Z"></path> </g> </g> </svg> 